<svg xmlns="http://www.w3.org/2000/svg" width="1600" height="760" viewBox="0 0 1600 760">
  <defs>
    <linearGradient id="bg" x1="0" y1="0" x2="1" y2="0">
      <stop offset="0" stop-color="#041018"/>
      <stop offset=".55" stop-color="#0b1115"/>
      <stop offset="1" stop-color="#030509"/>
    </linearGradient>
    <filter id="glow" x="-50%" y="-50%" width="200%" height="200%">
      <feGaussianBlur stdDeviation="7" result="b"/>
      <feMerge><feMergeNode in="b"/><feMergeNode in="SourceGraphic"/></feMerge>
    </filter>
  </defs>
  <rect width="1600" height="760" fill="url(#bg)"/>
  <rect x="130" y="96" width="1340" height="500" rx="26" fill="#0d1917" stroke="#eef7f6" stroke-opacity=".14"/>
  <g stroke="#7df9ff" stroke-opacity=".4" stroke-width="4" fill="none" filter="url(#glow)">
    <path d="M212 472h220v-96h220v-126h300v126h206v-168h214"/>
    <path d="M212 240h160v72h182"/>
    <path d="M718 472v84h420"/>
    <path d="M1028 250h-92v-78H764"/>
  </g>
  <g fill="#101820" stroke="#baf7d0" stroke-opacity=".38">
    <rect x="502" y="292" width="164" height="112" rx="10"/>
    <rect x="952" y="308" width="128" height="94" rx="10"/>
    <rect x="1204" y="168" width="110" height="82" rx="10"/>
    <rect x="322" y="184" width="88" height="68" rx="8"/>
  </g>
  <g fill="#7df9ff">
    <circle cx="212" cy="472" r="9"/><circle cx="432" cy="472" r="9"/><circle cx="652" cy="376" r="9"/>
    <circle cx="952" cy="250" r="9"/><circle cx="1158" cy="376" r="9"/><circle cx="1372" cy="208" r="9"/>
    <circle cx="718" cy="556" r="9"/><circle cx="1138" cy="556" r="9"/>
  </g>
  <text x="130" y="668" fill="#eef7f6" fill-opacity=".46" font-family="Arial" font-size="28">GND stitching · RF clearance · EMC routing · 4-layer PCB</text>
</svg>
