<svg xmlns="http://www.w3.org/2000/svg" width="900" height="820" viewBox="0 0 900 820">
  <defs>
    <linearGradient id="bg" x1="0" y1="0" x2="1" y2="1">
      <stop offset="0" stop-color="#0b1418"/>
      <stop offset="1" stop-color="#030509"/>
    </linearGradient>
  </defs>
  <rect width="900" height="820" fill="url(#bg)"/>
  <rect x="138" y="132" width="624" height="470" rx="28" fill="#102018" stroke="#baf7d0" stroke-opacity=".34" stroke-width="2"/>
  <rect x="340" y="274" width="216" height="160" rx="10" fill="#081015" stroke="#eef7f6" stroke-opacity=".22"/>
  <text x="448" y="364" fill="#7df9ff" font-family="Arial" font-size="30" font-weight="700" text-anchor="middle">STC89C52RC</text>
  <rect x="196" y="190" width="88" height="44" rx="8" fill="#0c1317" stroke="#7df9ff" stroke-opacity=".42"/>
  <rect x="622" y="190" width="86" height="44" rx="8" fill="#0c1317" stroke="#7df9ff" stroke-opacity=".42"/>
  <rect x="196" y="498" width="512" height="44" rx="8" fill="#071017" stroke="#eef7f6" stroke-opacity=".18"/>
  <g fill="#7df9ff" opacity=".72">
    <circle cx="222" cy="520" r="8"/><circle cx="266" cy="520" r="8"/><circle cx="310" cy="520" r="8"/><circle cx="354" cy="520" r="8"/>
    <circle cx="398" cy="520" r="8"/><circle cx="442" cy="520" r="8"/><circle cx="486" cy="520" r="8"/><circle cx="530" cy="520" r="8"/>
    <circle cx="574" cy="520" r="8"/><circle cx="618" cy="520" r="8"/><circle cx="662" cy="520" r="8"/>
  </g>
  <g stroke="#baf7d0" stroke-opacity=".38" stroke-width="3" fill="none">
    <path d="M284 212h130v62"/>
    <path d="M622 212H486v62"/>
    <path d="M448 434v64"/>
    <path d="M228 498V366h112"/>
    <path d="M672 498V366H556"/>
  </g>
</svg>
